<?xml version="1.0" encoding="utf-8"?>
<!-- Generator: Adobe Illustrator 19.0.0, SVG Export Plug-In . SVG Version: 6.00 Build 0)  -->
<svg version="1.1" id="Calque_1" xmlns="http://www.w3.org/2000/svg" xmlns:xlink="http://www.w3.org/1999/xlink" x="0px" y="0px"
	 viewBox="0 0 306 111.4" style="enable-background:new 0 0 306 111.4;" xml:space="preserve">
<style type="text/css">
	.st0{fill:#9BC220;}
	.st1{fill:#070606;}
</style>
<g>
	<rect x="111.1" y="24.1" class="st0" width="5.4" height="30.4"/>
	<path class="st0" d="M126.2,54.5V24.1h5.2v4.5c0.7-1.5,1.7-2.7,3.2-3.6c1.5-0.9,2.9-1.4,4.2-1.5c1-0.1,2,0,2.9,0.2
		c3.4,0.6,5.7,2.6,7,5.9c1.9-4.2,5-6.3,9.2-6.3c3.3,0,5.9,1.2,7.6,3.5c1.8,2.4,2.6,5.7,2.6,10v17.6h-5.2V37.3c0-2.5-0.5-4.5-1.6-5.9
		c-1.1-1.4-2.6-2.1-4.5-2.1c-2.2,0-3.9,0.8-5.2,2.5c-1.3,1.7-1.9,3.8-1.9,6.4v16.4h-5.2V37.2c0-2.5-0.5-4.4-1.6-5.9
		c-1-1.4-2.4-2.1-4.2-2.1c-2.1,0-3.8,0.7-5.3,2.2c-1.4,1.5-2.2,3.7-2.2,6.7v16.4H126.2z"/>
	<path class="st0" d="M230,47.5c-1.4-2.5-2.1-5.3-2.1-8.4c0-3.1,0.7-5.9,2.1-8.3c1.4-2.4,3.2-4.3,5.5-5.5c2.3-1.3,4.8-1.9,7.5-1.9
		c2.7,0,5.2,0.6,7.5,1.9c2.3,1.3,4.1,3.1,5.5,5.5c1.4,2.4,2.1,5.2,2.1,8.3c0,3.1-0.7,5.9-2.1,8.4c-1.4,2.5-3.2,4.4-5.5,5.7
		c-2.3,1.3-4.8,1.9-7.5,1.9c-2.7,0-5.2-0.6-7.5-1.9C233.2,51.9,231.3,50,230,47.5 M233.5,39.2c0,3,0.9,5.5,2.7,7.4
		c1.8,1.9,4.1,2.8,6.7,2.8c2.6,0,4.9-0.9,6.7-2.8c1.8-1.9,2.7-4.3,2.7-7.4c0-3-0.9-5.4-2.7-7.2c-1.8-1.8-4-2.7-6.7-2.7
		c-2.7,0-4.9,0.9-6.7,2.7C234.4,33.8,233.5,36.2,233.5,39.2"/>
	<path class="st0" d="M177.9,54.3V23.9h5.2v4.5c0.7-1.5,1.7-2.7,3.2-3.6c1.5-0.9,2.9-1.4,4.2-1.5c1-0.1,2,0,2.9,0.2
		c3.4,0.6,5.7,2.6,7,5.9c1.9-4.2,5-6.3,9.2-6.3c3.3,0,5.9,1.2,7.6,3.5c1.8,2.4,2.6,5.7,2.6,10v17.6h-5.2V37.1c0-2.5-0.5-4.5-1.6-5.9
		c-1.1-1.4-2.6-2.1-4.5-2.1c-2.2,0-3.9,0.8-5.2,2.5c-1.3,1.7-1.9,3.8-1.9,6.4v16.4h-5.2V37.1c0-2.5-0.5-4.4-1.6-5.9
		c-1-1.4-2.4-2.1-4.2-2.1c-2.1,0-3.8,0.7-5.3,2.2c-1.4,1.5-2.2,3.7-2.2,6.7v16.4H177.9z"/>
	<path class="st0" d="M116.5,13.6H111v6.3c0,0,0,0,0,0h5.5V13.6z"/>
	<path class="st1" d="M207.7,81.5c0-4.7,1.5-8.5,4.5-11.4c3-2.9,6.7-4.3,11.2-4.3c4.5,0,8.1,1.4,11,4.3c2.8,2.9,4.3,6.7,4.3,11.4
		c0,1,0,1.6-0.1,2h-26.5c0.4,2.9,1.6,5.3,3.7,7c2.1,1.7,4.5,2.6,7.5,2.6c2.1,0,4-0.5,5.7-1.4c1.7-0.9,3-2.2,4-3.9
		c0.5,0.1,1.3,0.3,2.3,0.5c1,0.2,1.8,0.4,2.1,0.5c-1.3,2.7-3.1,4.8-5.7,6.3c-2.5,1.5-5.4,2.3-8.5,2.3c-2.9,0-5.6-0.7-8-2
		c-2.4-1.3-4.2-3.2-5.6-5.6C208.4,87.4,207.7,84.6,207.7,81.5 M212.1,79.4H234c-0.4-2.9-1.6-5.2-3.5-6.9c-1.9-1.7-4.3-2.5-7.2-2.5
		c-2.9,0-5.4,0.9-7.5,2.6C213.8,74.3,212.6,76.5,212.1,79.4"/>
	<path class="st1" d="M141.7,81.5c0-4.7,1.5-8.5,4.5-11.4c3-2.9,6.7-4.3,11.2-4.3c4.5,0,8.1,1.4,11,4.3c2.8,2.9,4.3,6.7,4.3,11.4
		c0,1,0,1.6-0.1,2h-26.5c0.4,2.9,1.6,5.3,3.7,7c2.1,1.7,4.5,2.6,7.5,2.6c2.1,0,4-0.5,5.7-1.4c1.7-0.9,3-2.2,4-3.9
		c0.5,0.1,1.3,0.3,2.3,0.5c1.1,0.2,1.8,0.4,2.1,0.5c-1.3,2.7-3.1,4.8-5.7,6.3c-2.5,1.5-5.4,2.3-8.5,2.3c-2.9,0-5.6-0.7-8-2
		c-2.4-1.3-4.2-3.2-5.6-5.6C142.4,87.4,141.7,84.6,141.7,81.5 M146.1,79.4h21.9c-0.4-2.9-1.6-5.2-3.5-6.9c-1.9-1.7-4.3-2.5-7.2-2.5
		c-2.9,0-5.4,0.9-7.5,2.6C147.7,74.3,146.5,76.5,146.1,79.4"/>
	<path class="st1" d="M177.1,88.1h4.7c1,3.5,3.9,5.2,8.5,5.2c2.3,0,4.2-0.4,5.6-1.3c1.4-0.9,2.1-2,2.1-3.5c0-1.1-0.4-2-1.3-2.9
		c-0.8-0.8-2.2-1.4-4-1.8l-5-1c-1.1-0.2-2-0.4-2.8-0.7c-0.8-0.3-1.7-0.6-2.6-1.1c-0.9-0.5-1.7-1.1-2.3-1.8c-0.6-0.7-1-1.6-1.3-2.6
		c-0.3-1.1-0.4-2.3-0.2-3.7c0.4-2.1,1.7-3.9,3.9-5.2c2.2-1.3,4.9-2,7.9-2c3,0,5.5,0.7,7.6,2c2.1,1.3,3.3,3.3,3.8,5.9h-5
		c-0.3-1.2-1-2.1-2.2-2.8s-2.6-1-4.1-1c-1.7,0-3.3,0.4-4.5,1.1c-1.3,0.7-2,1.6-2.2,2.7c-0.2,0.7-0.1,1.3,0,1.9
		c0.2,0.6,0.4,1,0.7,1.3c0.3,0.3,0.8,0.7,1.3,0.9c0.6,0.3,1.1,0.5,1.6,0.6c0.5,0.1,1,0.3,1.6,0.4l4.9,1c6.1,1.2,9.2,4.2,9.2,8.8
		c0,2.6-1.3,4.8-3.8,6.4c-2.5,1.7-5.7,2.5-9.5,2.5c-3.3,0-6.2-0.9-8.7-2.6C178.6,93.1,177.2,90.9,177.1,88.1"/>
	<path class="st1" d="M243.6,81.5c0-4.7,1.4-8.5,4.3-11.4c2.8-2.9,6.4-4.4,10.6-4.4c2.3,0,4.4,0.5,6.4,1.4c2,1,3.5,2.3,4.6,4.2v-4.9
		h4.1v30.4h-4.1v-5.2c-1.1,1.8-2.6,3.2-4.6,4.3c-2,1-4.1,1.5-6.4,1.5c-4.2,0-7.7-1.5-10.6-4.4C245.1,90,243.6,86.2,243.6,81.5
		 M247.7,81.5c0,3.4,1,6.1,3.1,8.3c2.1,2.2,4.6,3.3,7.6,3.3c3.1,0,5.7-1,7.8-3.1c2.1-2.1,3.2-4.9,3.2-8.5c0-1.8-0.3-3.5-1-5
		c-0.7-1.5-1.5-2.7-2.6-3.6c-1.1-0.9-2.2-1.6-3.5-2.1c-1.3-0.5-2.6-0.8-3.9-0.8c-3.1,0-5.6,1.1-7.7,3.2
		C248.8,75.3,247.7,78.1,247.7,81.5"/>
	<path class="st1" d="M281.3,84.1V66.4h4.1v17.7c0,2.8,0.6,5,1.8,6.6c1.2,1.6,2.9,2.4,5.1,2.4c1.2,0,2.4-0.2,3.5-0.6
		c1.1-0.4,2.1-0.9,3-1.7c0.9-0.8,1.7-1.8,2.2-3.2c0.6-1.3,0.8-2.9,0.8-4.7V66.4h4.1v30.4h-4.1v-5c-0.8,1.8-2.2,3.2-4,4.2
		c-1.8,1-3.7,1.4-5.6,1.4c-3.5,0-6.2-1.2-8.2-3.5C282.2,91.5,281.2,88.2,281.3,84.1"/>
	<path class="st1" d="M130.7,73.1c1.2,1.6,1.9,3.8,1.9,6.6v0.9h4.2v-0.9c0-4.2-0.9-7.4-3-9.8c-2-2.4-4.8-3.5-8.4-3.5
		c-1.9,0-3.9,0.5-5.7,1.4c-1.9,1-3.3,2.4-4.1,4.2v-5h-4.2v30.4h4.2V80.8c0-1.8,0.3-3.3,0.9-4.7c0.6-1.3,1.3-2.4,2.3-3.2
		c1-0.8,2-1.3,3.1-1.7c1.1-0.4,2.3-0.6,3.5-0.6C127.7,70.7,129.4,71.5,130.7,73.1"/>
	<path class="st0" d="M37.5,93.5C16.8,93.5,0,76.7,0,56c0-20.7,16.8-37.5,37.5-37.5c20.7,0,37.5,16.8,37.5,37.5
		C75.1,76.7,58.2,93.5,37.5,93.5 M37.5,23.5C19.6,23.5,5,38.1,5,56c0,17.9,14.6,32.5,32.5,32.5c17.9,0,32.5-14.6,32.5-32.5
		C70.1,38.1,55.5,23.5,37.5,23.5"/>
	<rect x="20.5" y="47.7" class="st0" width="4.8" height="24.6"/>
	<rect x="49.6" y="47.7" class="st0" width="4.8" height="24.1"/>
	<polygon class="st0" points="54.4,47.3 37.5,34.6 34.7,38.5 53.9,52.9 54.4,52.3 	"/>
	<polygon class="st0" points="37.5,34.6 20.5,47.4 20.5,52.1 21.1,52.9 40.4,38.5 	"/>
	<rect x="20.5" y="67.5" class="st0" width="33.9" height="4.8"/>
	<rect x="44.9" y="37.7" class="st0" width="4.8" height="7.9"/>
	<path class="st1" d="M90.3,97.5h-1.9c-0.4,0-0.7-0.3-0.7-0.7V14.2c0-0.4,0.3-0.7,0.7-0.7h1.9c0.4,0,0.7,0.3,0.7,0.7v82.6
		C91,97.2,90.7,97.5,90.3,97.5"/>
</g>
</svg>
