<?xml version="1.0" encoding="UTF-8"?><svg id="Calque_2" xmlns="http://www.w3.org/2000/svg" viewBox="0 0 279.17 76.57"><defs><style>.cls-1{fill:#070605;}.cls-2{fill:#9ac220;}</style></defs><g id="Calque_1-2"><g><g><g><path class="cls-2" d="M101.33,37.37V9.63h4.95v27.74h-4.95Z"/><path class="cls-2" d="M115.09,37.37V9.63h4.73v4.15c.59-1.39,1.56-2.49,2.9-3.29,1.34-.8,2.61-1.25,3.82-1.35,.95-.06,1.84,0,2.67,.17,3.07,.52,5.19,2.33,6.36,5.43,1.73-3.81,4.54-5.72,8.42-5.72,3.04,0,5.36,1.07,6.97,3.22,1.61,2.15,2.42,5.17,2.42,9.08v16.05h-4.73v-15.7c0-2.3-.5-4.11-1.49-5.41-.99-1.31-2.36-1.96-4.11-1.96-1.97-.02-3.54,.73-4.71,2.25-1.17,1.52-1.76,3.47-1.76,5.85v14.97h-4.73v-15.76c0-2.26-.48-4.05-1.43-5.35-.95-1.31-2.23-1.96-3.84-1.96-1.88,0-3.48,.67-4.8,2.02-1.31,1.34-1.97,3.37-1.97,6.08v14.97h-4.73Z"/><path class="cls-2" d="M209.8,31.01c-1.25-2.25-1.88-4.8-1.88-7.63s.63-5.36,1.88-7.57c1.25-2.21,2.92-3.9,4.99-5.06,2.07-1.16,4.35-1.74,6.84-1.74s4.77,.58,6.83,1.74,3.72,2.84,4.97,5.06c1.25,2.21,1.88,4.74,1.88,7.57s-.63,5.38-1.88,7.63c-1.25,2.25-2.91,3.97-4.99,5.16-2.07,1.19-4.34,1.78-6.82,1.78s-4.75-.59-6.83-1.78c-2.08-1.18-3.74-2.9-5-5.16Zm3.2-7.63c0,2.76,.83,4.99,2.5,6.71,1.67,1.72,3.71,2.57,6.13,2.57s4.43-.86,6.1-2.57c1.66-1.72,2.5-3.95,2.5-6.71s-.83-4.91-2.48-6.58c-1.66-1.67-3.69-2.5-6.11-2.5s-4.46,.83-6.13,2.5c-1.66,1.67-2.5,3.86-2.5,6.58Z"/><path class="cls-2" d="M162.35,37.2V9.46h4.73v4.15c.59-1.39,1.56-2.49,2.9-3.29,1.34-.8,2.61-1.25,3.82-1.35,.95-.06,1.84,0,2.67,.17,3.07,.52,5.19,2.33,6.36,5.43,1.73-3.81,4.54-5.72,8.42-5.72,3.04,0,5.36,1.07,6.97,3.22,1.61,2.15,2.42,5.17,2.42,9.08v16.05h-4.73v-15.7c0-2.3-.5-4.11-1.49-5.41-.99-1.31-2.36-1.96-4.11-1.96-1.97-.02-3.54,.73-4.71,2.25-1.17,1.52-1.76,3.47-1.76,5.85v14.97h-4.73v-15.76c0-2.26-.48-4.05-1.43-5.35-.95-1.31-2.23-1.96-3.84-1.96-1.88,0-3.48,.67-4.8,2.02-1.31,1.34-1.97,3.37-1.97,6.08v14.97h-4.73Z"/></g><path class="cls-2" d="M106.3,.06h-5.03V5.81s.02,.03,.02,.04h5.01V.06Z"/></g><g><path class="cls-1" d="M189.53,61.95c0-4.3,1.36-7.77,4.09-10.4,2.73-2.63,6.14-3.95,10.25-3.95s7.43,1.31,10.02,3.92c2.59,2.61,3.88,6.09,3.88,10.43,0,.88-.02,1.5-.06,1.86h-24.18c.37,2.67,1.5,4.8,3.38,6.39,1.88,1.59,4.15,2.39,6.82,2.39,1.92,0,3.65-.43,5.22-1.28,1.56-.85,2.78-2.03,3.64-3.54,.45,.12,1.16,.28,2.12,.48,.96,.2,1.6,.34,1.94,.42-1.15,2.46-2.87,4.37-5.17,5.76-2.3,1.38-4.88,2.07-7.75,2.07-2.69,0-5.11-.6-7.27-1.79-2.16-1.19-3.85-2.9-5.08-5.13-1.23-2.23-1.84-4.78-1.84-7.64Zm4-1.89h19.94c-.4-2.63-1.47-4.71-3.21-6.25-1.75-1.54-3.93-2.3-6.53-2.3s-4.93,.78-6.8,2.33c-1.87,1.56-3,3.63-3.39,6.22Z"/><path class="cls-1" d="M129.26,61.95c0-4.3,1.36-7.77,4.09-10.4,2.73-2.63,6.14-3.95,10.25-3.95s7.43,1.31,10.02,3.92c2.59,2.61,3.88,6.09,3.88,10.43,0,.88-.02,1.5-.06,1.86h-24.18c.37,2.67,1.5,4.8,3.38,6.39,1.88,1.59,4.15,2.39,6.82,2.39,1.92,0,3.65-.43,5.22-1.28,1.56-.85,2.78-2.03,3.64-3.54,.45,.12,1.16,.28,2.12,.48,.96,.2,1.6,.34,1.94,.42-1.15,2.46-2.87,4.37-5.17,5.76-2.3,1.38-4.88,2.07-7.75,2.07-2.69,0-5.11-.6-7.27-1.79-2.16-1.19-3.85-2.9-5.08-5.13-1.23-2.23-1.84-4.78-1.84-7.64Zm4-1.89h19.94c-.4-2.63-1.47-4.71-3.21-6.25-1.75-1.54-3.93-2.3-6.53-2.3s-4.93,.78-6.8,2.33c-1.87,1.56-3,3.63-3.39,6.22Z"/><path class="cls-1" d="M161.57,67.98h4.25c.94,3.19,3.53,4.79,7.76,4.79,2.12,0,3.81-.4,5.09-1.2,1.28-.8,1.92-1.86,1.92-3.18,0-.99-.38-1.86-1.15-2.62s-1.97-1.32-3.62-1.67l-4.6-.87c-.97-.19-1.82-.41-2.55-.64-.74-.23-1.53-.58-2.38-1.04-.85-.46-1.54-1.01-2.05-1.62-.52-.62-.91-1.42-1.19-2.41-.28-.99-.33-2.1-.17-3.33,.35-1.95,1.54-3.54,3.59-4.76,2.05-1.22,4.45-1.83,7.2-1.83s5.02,.59,6.92,1.78c1.9,1.19,3.06,2.99,3.47,5.41h-4.6c-.28-1.06-.95-1.9-2.02-2.52-1.07-.62-2.33-.93-3.78-.93-1.59,0-2.97,.32-4.14,.96-1.17,.64-1.84,1.46-2,2.45-.14,.62-.13,1.19,.03,1.69,.16,.51,.39,.91,.68,1.23,.3,.31,.7,.59,1.21,.85s.98,.44,1.42,.55c.43,.12,.92,.23,1.47,.35l4.51,.9c5.59,1.11,8.4,3.8,8.42,8.06,0,2.38-1.15,4.33-3.44,5.85-2.29,1.52-5.17,2.28-8.65,2.28-2.99,0-5.63-.78-7.94-2.33-2.3-1.56-3.53-3.62-3.66-6.19Z"/><path class="cls-1" d="M222.28,61.98c0-4.29,1.29-7.76,3.88-10.41,2.59-2.65,5.8-3.97,9.65-3.97,2.06,0,4,.44,5.82,1.31,1.83,.87,3.22,2.14,4.18,3.8v-4.5h3.75v27.72h-3.75v-4.71c-.96,1.67-2.37,2.96-4.21,3.89-1.84,.93-3.78,1.39-5.8,1.39-3.83,0-7.04-1.34-9.64-4.03-2.6-2.69-3.89-6.19-3.89-10.5Zm3.75,0c0,3.07,.94,5.61,2.81,7.61,1.87,2,4.2,3,6.98,3s5.21-.94,7.13-2.83c1.92-1.89,2.88-4.48,2.88-7.79,0-1.65-.3-3.16-.89-4.52-.59-1.36-1.37-2.46-2.34-3.31-.96-.85-2.03-1.5-3.2-1.95s-2.36-.69-3.59-.69c-2.82,0-5.15,.96-7.01,2.89-1.85,1.92-2.78,4.45-2.78,7.58Z"/><path class="cls-1" d="M256.62,64.36v-16.15h3.71v16.15c0,2.57,.56,4.59,1.67,6.05,1.11,1.46,2.68,2.19,4.7,2.19,1.1,0,2.15-.17,3.15-.51,1-.34,1.93-.86,2.78-1.57,.85-.71,1.54-1.67,2.05-2.9,.51-1.23,.77-2.65,.77-4.28v-15.14h3.71v27.72h-3.71v-4.58c-.75,1.68-1.97,2.96-3.65,3.84s-3.38,1.32-5.11,1.32c-3.18,0-5.66-1.08-7.45-3.23-1.79-2.16-2.66-5.13-2.63-8.92Z"/><path class="cls-1" d="M119.24,54.31c1.14,1.46,1.71,3.47,1.71,6.05v.8h3.81v-.8c.04-3.79-.86-6.76-2.69-8.92-1.83-2.16-4.38-3.23-7.63-3.23-1.77,0-3.52,.44-5.24,1.32s-2.97,2.16-3.74,3.84v-4.58h-3.81v27.72h3.81v-15.14c0-1.62,.26-3.05,.79-4.28,.53-1.23,1.23-2.19,2.1-2.9,.88-.71,1.83-1.23,2.85-1.57,1.03-.34,2.1-.51,3.23-.51,2.07,0,3.68,.73,4.81,2.19Z"/></g><g><path class="cls-2" d="M34.25,72.97C15.36,72.97,0,57.61,0,38.72S15.36,4.47,34.25,4.47s34.25,15.36,34.25,34.25-15.36,34.25-34.25,34.25Zm0-63.91c-16.36,0-29.66,13.31-29.66,29.66s13.31,29.66,29.66,29.66,29.66-13.31,29.66-29.66-13.31-29.66-29.66-29.66Z"/><rect class="cls-2" x="18.72" y="31.14" width="4.41" height="22.43"/><rect class="cls-2" x="45.24" y="31.11" width="4.42" height="21.98"/><polygon class="cls-2" points="49.66 30.75 34.25 19.21 31.62 22.73 49.21 35.91 49.66 35.31 49.66 30.75"/><polygon class="cls-2" points="34.25 19.21 18.72 30.84 18.72 35.14 19.29 35.91 36.88 22.73 34.25 19.21"/><rect class="cls-2" x="31.99" y="35.91" width="4.4" height="30.93" transform="translate(85.57 17.19) rotate(90)"/><rect class="cls-2" x="40.97" y="22.04" width="4.4" height="7.21" transform="translate(86.34 51.3) rotate(180)"/></g><rect class="cls-1" x="80.07" y="0" width="2.96" height="76.57" rx=".63" ry=".63"/></g></g></svg>